<svg xmlns="http://www.w3.org/2000/svg" viewBox="0 0 219.81 58"><defs><style>.cls-1{fill:#fff;}</style></defs><title>logo-b</title><g id="Livello_2" data-name="Livello 2"><g id="loghi"><g id="logo"><path id="icona" class="cls-1" d="M29.91,6.37V0H28.09V6.37A22.66,22.66,0,0,0,6.37,28.09H0v1.82H6.37A22.66,22.66,0,0,0,28.09,51.63V58h1.82V51.63A22.66,22.66,0,0,0,51.63,29.91H58V28.09H51.63A22.66,22.66,0,0,0,29.91,6.37Zm0,43.45V43.5H28.09v6.32A20.86,20.86,0,0,1,8.18,29.91H14.5V28.09H8.18A20.86,20.86,0,0,1,28.09,8.18V14.5h1.82V8.18A20.86,20.86,0,0,1,49.82,28.09H43.5v1.82h6.32A20.86,20.86,0,0,1,29.91,49.82Z"/><g id="killer"><path id="k" class="cls-1" d="M40.76,38a5.59,5.59,0,0,0,2.62,1,6.79,6.79,0,0,1-.45,2.85c-1.45,0-3.2,0-5.27.07a39,39,0,0,0-4.35.27c-1.14-2.36-2.26-4.48-3.38-6.36a40,40,0,0,0-3.76-5.34v4.25a12.06,12.06,0,0,0,.21,2.64,1.93,1.93,0,0,0,.72,1.2,3.3,3.3,0,0,0,1.58.42,11.65,11.65,0,0,1,.3,3q-1.71-.11-6-.11-4.49,0-7.18.11a13.21,13.21,0,0,1,.11-1.52,12.55,12.55,0,0,1,.27-1.44,3.17,3.17,0,0,0,1.56-.42,1.92,1.92,0,0,0,.68-1.18,12.94,12.94,0,0,0,.19-2.66V23.26a14.06,14.06,0,0,0-.17-2.58,1.67,1.67,0,0,0-.67-1.12,4,4,0,0,0-1.63-.48,12.08,12.08,0,0,1-.34-3q1.89.11,6.8.11,4.14,0,6.42-.11c0,.65,0,1.21-.06,1.65a5,5,0,0,1-.28,1.31,3.72,3.72,0,0,0-1.6.44,1.74,1.74,0,0,0-.68,1.14,12.4,12.4,0,0,0-.19,2.6v4.41l5.13-5.09c1.19-1.19,1.78-2.11,1.78-2.74,0-.46-.32-.71-1-.76a10,10,0,0,1-.34-3c1,.07,2.39.11,4.29.11,3,0,4.9,0,5.81-.11a11.6,11.6,0,0,1-.11,1.59,7,7,0,0,1-.3,1.37,6.39,6.39,0,0,0-2.72.78,10.86,10.86,0,0,0-2.64,2.07L32,26.15a85.55,85.55,0,0,1,6.39,9.08A9.89,9.89,0,0,0,40.76,38Z"/><path id="i" class="cls-1" d="M43.88,40.47a8.24,8.24,0,0,1,.26-1.36,3.05,3.05,0,0,0,1.37-.35,1.42,1.42,0,0,0,.57-1,12.79,12.79,0,0,0,.15-2.32v-6.2a11.09,11.09,0,0,0-.15-2.2,1.41,1.41,0,0,0-.55-.91,3.69,3.69,0,0,0-1.42-.42,10.13,10.13,0,0,1-.35-2.89q2.13.07,6.31.08,3.23,0,6-.08,0,.91-.06,1.56a6.08,6.08,0,0,1-.28,1.33,3.56,3.56,0,0,0-1.41.38,1.42,1.42,0,0,0-.57.93,11.4,11.4,0,0,0-.15,2.22v6.2a10.85,10.85,0,0,0,.17,2.32,1.47,1.47,0,0,0,.59,1,3.13,3.13,0,0,0,1.4.35A9.35,9.35,0,0,1,56,42c-1.27-.05-3.12-.07-5.55-.07s-4.55,0-6.73.07A11.47,11.47,0,0,1,43.88,40.47Z"/><path id="l" class="cls-1" d="M73.38,38.23a7.14,7.14,0,0,0,1.58-3,7.94,7.94,0,0,1,2.22.38,4.67,4.67,0,0,1,1.54.76,21.39,21.39,0,0,0-1,5.63l-9.12,0L57.94,42a11.24,11.24,0,0,1,.3-2.88,3.24,3.24,0,0,0,1.39-.35,1.46,1.46,0,0,0,.61-.95,9.74,9.74,0,0,0,.17-2.12V29.26a10,10,0,0,0-.17-2.18,1.49,1.49,0,0,0-.61-.93,4.08,4.08,0,0,0-1.47-.42,15.37,15.37,0,0,1-.22-2.89c.66,0,1.14,0,1.44,0l4.67,0c2.28,0,4.34,0,6.16-.08,0,.66,0,1.22-.06,1.67a3.71,3.71,0,0,1-.28,1.22,3.56,3.56,0,0,0-1.41.38,1.42,1.42,0,0,0-.57.93,11.11,11.11,0,0,0-.15,2.19v6.19a5.92,5.92,0,0,0,.53,3,2.23,2.23,0,0,0,2,.8h.64A3.31,3.31,0,0,0,73.38,38.23Z"/><path id="l-2" data-name="l" class="cls-1" d="M95.31,38.23a7.25,7.25,0,0,0,1.58-3,8.07,8.07,0,0,1,2.22.38,4.67,4.67,0,0,1,1.54.76,21.34,21.34,0,0,0-1,5.63l-9.12,0L79.86,42a10.75,10.75,0,0,1,.31-2.88,3.19,3.19,0,0,0,1.38-.35,1.42,1.42,0,0,0,.61-.95,9.14,9.14,0,0,0,.17-2.12V29.26a9.4,9.4,0,0,0-.17-2.18,1.45,1.45,0,0,0-.61-.93,4.08,4.08,0,0,0-1.46-.42,15.26,15.26,0,0,1-.23-2.89c.66,0,1.14,0,1.45,0l4.67,0q3.42,0,6.16-.08c0,.66,0,1.22-.06,1.67a3.7,3.7,0,0,1-.29,1.22,3.56,3.56,0,0,0-1.4.38,1.42,1.42,0,0,0-.57.93,11.11,11.11,0,0,0-.15,2.19v6.19a5.81,5.81,0,0,0,.53,3,2.2,2.2,0,0,0,2,.8h.65A3.35,3.35,0,0,0,95.31,38.23Z"/><path id="e" class="cls-1" d="M120.92,35.69a4.48,4.48,0,0,1,1.54.76,19.69,19.69,0,0,0-1,5.51l-9,0L101.79,42a11.24,11.24,0,0,1,.3-2.88,3.2,3.2,0,0,0,1.39-.35,1.46,1.46,0,0,0,.61-.95,9.74,9.74,0,0,0,.17-2.12V29.26a10,10,0,0,0-.17-2.18,1.49,1.49,0,0,0-.61-.93,4.08,4.08,0,0,0-1.46-.42,14.47,14.47,0,0,1-.23-2.89q4.48.07,9.76.08c4.56,0,7.52,0,8.86-.08a27.17,27.17,0,0,0,.23,2.81,13.56,13.56,0,0,0,.49,2.47,10.79,10.79,0,0,1-1.67.46,10.45,10.45,0,0,1-1.9.15,3.62,3.62,0,0,0-1.27-2.33,5.63,5.63,0,0,0-3.18-.67h-1.52v5.81H112a1.89,1.89,0,0,0,1.39-.39,1.88,1.88,0,0,0,.36-1.28,8,8,0,0,1,3-.45c-.1,1.11-.15,2.23-.15,3.34a31.18,31.18,0,0,0,.15,3.31,8.71,8.71,0,0,1-2.93-.38,1.48,1.48,0,0,0-.45-1.14,2.52,2.52,0,0,0-1.37-.27h-.42v1.14a5.92,5.92,0,0,0,.53,3,2.23,2.23,0,0,0,2,.8h.65a3.32,3.32,0,0,0,2.37-.91,6.66,6.66,0,0,0,1.58-3A7.71,7.71,0,0,1,120.92,35.69Z"/><path id="r" class="cls-1" d="M145.49,38.76a5.37,5.37,0,0,0,1.4.23,11.17,11.17,0,0,1-.38,2.93,72.9,72.9,0,0,0-7.9.26A35,35,0,0,0,137,37.89c-.71-1.6-1.3-2.51-1.75-2.74H133.4v.57a12.33,12.33,0,0,0,.14,2.17,1.46,1.46,0,0,0,.43.91,1.85,1.85,0,0,0,.95.27,12.22,12.22,0,0,1,.23,2.92q-2.35-.08-6-.07c-1.37,0-3.14,0-5.32.07a11.47,11.47,0,0,1,.3-2.92,3.37,3.37,0,0,0,1.39-.34,1.52,1.52,0,0,0,.61-1,11.47,11.47,0,0,0,.17-2.3V29.19a10.11,10.11,0,0,0-.17-2.19,1.4,1.4,0,0,0-.59-.91,5.56,5.56,0,0,0-1.48-.47,14,14,0,0,1-.23-2.85c1.93.1,3.7.15,5.32.15.81,0,1.54,0,2.2,0L133,22.8c1.21-.07,2.35-.11,3.42-.11q5,0,7.05,1.63a5.41,5.41,0,0,1,2.07,4.49,5.7,5.7,0,0,1-1.33,3.78,6.7,6.7,0,0,1-3.54,2.15,3.5,3.5,0,0,1,1.75.87,28.44,28.44,0,0,1,2.36,2.62A1.54,1.54,0,0,0,145.49,38.76Zm-8.19-7.24a3.31,3.31,0,0,0,1-2.56,3.17,3.17,0,0,0-.89-2.38,3.51,3.51,0,0,0-2.49-.85,5.24,5.24,0,0,0-1.49.27v6.3a6.2,6.2,0,0,0,1.11.12A4,4,0,0,0,137.3,31.52Z"/></g><g id="pro"><path id="p" class="cls-1" d="M162.4,29.36a7.22,7.22,0,0,0,.95-4.12,8.16,8.16,0,0,0-1-4.45,3.46,3.46,0,0,0-3.13-1.63,4.18,4.18,0,0,0-1.48.26v15a5.36,5.36,0,0,0,.87,3.48,4.62,4.62,0,0,0,3.27,1.16,9.34,9.34,0,0,1,.34,3c-1.44-.07-3.89-.11-7.33-.11s-5.82,0-7.57.11a12.32,12.32,0,0,1,.27-3,3.44,3.44,0,0,0,1.62-.42,1.93,1.93,0,0,0,.72-1.2,12.06,12.06,0,0,0,.21-2.64V23.26a14.06,14.06,0,0,0-.17-2.58,1.67,1.67,0,0,0-.67-1.12,4,4,0,0,0-1.63-.48,12.07,12.07,0,0,1-.35-3q3.61.11,6.2.11l4.9,0c.76,0,1.62,0,2.58,0q5.63,0,7.91,2.08a7.51,7.51,0,0,1,2.28,5.87,9.65,9.65,0,0,1-2.55,7,9.41,9.41,0,0,1-7.07,2.62,7.4,7.4,0,0,1-2.58-.38,8.59,8.59,0,0,1-.08-.91,3.75,3.75,0,0,1,.42-1.83,3.6,3.6,0,0,0,.84.08A2.75,2.75,0,0,0,162.4,29.36Z"/><path id="r-2" data-name="r" class="cls-1" d="M194.17,38.76a5.29,5.29,0,0,0,1.4.23,11.6,11.6,0,0,1-.38,2.93,72.77,72.77,0,0,0-7.9.26,35.3,35.3,0,0,0-1.64-4.29c-.71-1.6-1.29-2.51-1.74-2.74h-1.83v.57a12.33,12.33,0,0,0,.14,2.17,1.41,1.41,0,0,0,.43.91,1.82,1.82,0,0,0,.95.27,12.78,12.78,0,0,1,.23,2.92c-1.57-.05-3.59-.07-6-.07-1.37,0-3.14,0-5.32.07a11.47,11.47,0,0,1,.3-2.92,3.41,3.41,0,0,0,1.39-.34,1.56,1.56,0,0,0,.61-1,11.47,11.47,0,0,0,.17-2.3V29.19a10.11,10.11,0,0,0-.17-2.19,1.44,1.44,0,0,0-.59-.91,5.69,5.69,0,0,0-1.48-.47,13.34,13.34,0,0,1-.23-2.85c1.92.1,3.7.15,5.32.15.81,0,1.54,0,2.2,0l1.67-.08c1.22-.07,2.36-.11,3.42-.11q5,0,7,1.63a5.41,5.41,0,0,1,2.07,4.49,5.65,5.65,0,0,1-1.33,3.78,6.64,6.64,0,0,1-3.53,2.15,3.5,3.5,0,0,1,1.75.87,28.75,28.75,0,0,1,2.35,2.62A1.62,1.62,0,0,0,194.17,38.76ZM186,31.52A3.31,3.31,0,0,0,187,29a3.14,3.14,0,0,0-.9-2.38,3.48,3.48,0,0,0-2.49-.85,5.18,5.18,0,0,0-1.48.27v6.3a6.2,6.2,0,0,0,1.1.12A4,4,0,0,0,186,31.52Z"/><path id="o" class="cls-1" d="M201.88,41a9.07,9.07,0,0,1-4-3.45,9.76,9.76,0,0,1-1.39-5.25,8.64,8.64,0,0,1,3.19-7.14q3.19-2.55,8.59-2.55a13.26,13.26,0,0,1,8.4,2.45,8.28,8.28,0,0,1,3.11,6.9,10,10,0,0,1-1.44,5.34A9.55,9.55,0,0,1,214.23,41a14.48,14.48,0,0,1-6.31,1.29A14.06,14.06,0,0,1,201.88,41Zm9.44-3.38a10.07,10.07,0,0,0,1.05-5,10,10,0,0,0-1.24-5.42,3.81,3.81,0,0,0-3.36-1.92q-3.79,0-3.8,6.35a12.56,12.56,0,0,0,1.1,5.66,3.53,3.53,0,0,0,3.27,2.17A3.26,3.26,0,0,0,211.32,37.66Z"/></g></g></g></g></svg>