<svg height="512" viewBox="0 0 48 56" width="512" xmlns="http://www.w3.org/2000/svg"><path id="Shape" d="m39.662 43.54c-1.1015395 1.4552209-2.5508552 2.6105473-4.215 3.36-.4942949.2468713-1.0951287.0462949-1.342-.448s-.0462949-1.0951287.448-1.342c6.213-3.1 4.137-7.381 2.154-5.4-3.2 3.198-5.46 3.29-5.707 3.29-.5522847.005799-1.004701-.4372153-1.0105-.9895s.4372153-1.004701.9895-1.0105c.073 0 1.7-.169 4.161-2.565-.8322654-2.2163728-.8446791-4.6572767-.035-6.882.94-1.879 2.895-5.789 2.895-13.553 0-11.944-4.71-18-14-18s-14 6.056-14 18c0 7.764 1.955 11.674 2.895 13.553.5875977 1.5016698.7582861 3.1342655.494 4.725l.016.015c2.595 2.593 4.301 2.707 4.318 2.707.5443645.0263422.9700995.4790448.963 1.024-.0076292.539733-.4462173.973873-.986.976-.247 0-2.507-.092-5.707-3.293-1.972-1.974-4.057 2.294 2.155 5.4.4942949.2471474.6946474.8482051.4475 1.3425s-.8482051.6946474-1.3425.4475c-1.228196-.5858296-2.3536929-1.3662147-3.333-2.311-2.047 1.557-3.717 1.49-9.352 3.821 10.716 12.783 36.175 12.844 46.872 0-3.382-1.399-6.814-2.407-7.778-2.867zm-25.662-22.54c-1-7 3-10 10-10s11 3 10 10-6 0-10 0-9 7-10 0zm10 10c-2 0-4 2-4-1-.1058737-1.0898935.2814076-2.1699948 1.0557064-2.9442936s1.8544001-1.1615801 2.9442936-1.0557064c1.0898935-.1058737 2.1699948.2814076 2.9442936 1.0557064s1.1615801 1.8544001 1.0557064 2.9442936c0 3-2 1-4 1z"/></svg>