<?xml version="1.0" encoding="iso-8859-1"?>
<!-- Generator: Adobe Illustrator 17.1.0, SVG Export Plug-In . SVG Version: 6.00 Build 0)  -->
<!DOCTYPE svg PUBLIC "-//W3C//DTD SVG 1.1//EN" "http://www.w3.org/Graphics/SVG/1.1/DTD/svg11.dtd">
<svg version="1.1" id="Capa_1" xmlns="http://www.w3.org/2000/svg" xmlns:xlink="http://www.w3.org/1999/xlink" x="0px" y="0px"
	 viewBox="0 0 297 297" style="enable-background:new 0 0 297 297;" xml:space="preserve">
<g>
	<path d="M198.333,267.773V95c0-5.559-4-10.222-9-11.585V62.192C189.333,39.56,171.403,0,148.77,0h-0.207
		c-22.633,0-41.229,39.56-41.229,62.192v21c-6,0.988-10,5.893-10,11.808v173.521c-3,2.933-5.834,7.429-5.834,12.479
		c0,8.837,7.33,16,16.166,16h82c8.837,0,15.833-7.163,15.833-16C205.5,275.501,203.333,270.653,198.333,267.773z M114.334,262V107
		c0-4.418,3.582-8,8-8c4.418,0,8,3.582,8,8v155c0,4.418-3.582,8-8,8C117.915,270,114.334,266.418,114.334,262z"/>
</g>
<g>
</g>
<g>
</g>
<g>
</g>
<g>
</g>
<g>
</g>
<g>
</g>
<g>
</g>
<g>
</g>
<g>
</g>
<g>
</g>
<g>
</g>
<g>
</g>
<g>
</g>
<g>
</g>
<g>
</g>
</svg>
