<?xml version="1.0" encoding="iso-8859-1"?>
<!-- Generator: Adobe Illustrator 16.0.0, SVG Export Plug-In . SVG Version: 6.00 Build 0)  -->
<!DOCTYPE svg PUBLIC "-//W3C//DTD SVG 1.1//EN" "http://www.w3.org/Graphics/SVG/1.1/DTD/svg11.dtd">
<svg version="1.1" id="Capa_1" xmlns="http://www.w3.org/2000/svg" xmlns:xlink="http://www.w3.org/1999/xlink" x="0px" y="0px"
	 width="65px" height="65px" viewBox="0 0 65 65" style="enable-background:new 0 0 65 65;" xml:space="preserve">
<g>
	<g>
		<g>
			<path d="M32.833,56.454c-13.509,0-24.5-10.99-24.5-24.5c0-13.51,10.991-24.5,24.5-24.5c13.51,0,24.501,10.99,24.501,24.5
				C57.334,45.463,46.343,56.454,32.833,56.454z M32.833,11.453c-11.304,0-20.5,9.196-20.5,20.5c0,11.303,9.196,20.5,20.5,20.5
				c11.306,0,20.501-9.197,20.501-20.5C53.334,20.649,44.139,11.453,32.833,11.453z"/>
		</g>
		<g>
			<g>
				<path d="M21.066,21.346c-0.269,0-0.536-0.107-0.733-0.319c-0.376-0.405-0.352-1.038,0.053-1.414
					c1.991-1.848,4.423-3.198,7.032-3.906c0.534-0.148,1.082,0.171,1.227,0.703c0.145,0.533-0.17,1.082-0.703,1.227
					c-2.298,0.624-4.44,1.814-6.195,3.443C21.554,21.258,21.31,21.346,21.066,21.346z"/>
			</g>
			<g>
				<path d="M16.912,27.646c-0.111,0-0.225-0.019-0.335-0.058c-0.521-0.186-0.793-0.757-0.607-1.277
					c0.284-0.8,0.633-1.585,1.036-2.333c0.262-0.485,0.869-0.67,1.354-0.405c0.486,0.262,0.668,0.868,0.406,1.354
					c-0.355,0.658-0.662,1.35-0.912,2.054C17.709,27.391,17.323,27.646,16.912,27.646z"/>
			</g>
		</g>
		<g>
			<path d="M33.381,18c-1.104,0-2-0.896-2-2V2c0-1.104,0.896-2,2-2c1.104,0,2,0.896,2,2v14C35.381,17.104,34.484,18,33.381,18z"/>
		</g>
		<g>
			<path d="M33.381,65c-1.104,0-2-0.896-2-2V49c0-1.105,0.896-2,2-2c1.104,0,2,0.895,2,2v14C35.381,64.104,34.484,65,33.381,65z"/>
		</g>
		<g>
			<path d="M63,35H49c-1.104,0-2-0.896-2-2c0-1.104,0.896-2,2-2h14c1.104,0,2,0.896,2,2C65,34.104,64.104,35,63,35z"/>
		</g>
		<g>
			<path d="M16,35H2c-1.104,0-2-0.896-2-2c0-1.104,0.896-2,2-2h14c1.104,0,2,0.896,2,2C18,34.104,17.104,35,16,35z"/>
		</g>
	</g>
</g>
<g>
</g>
<g>
</g>
<g>
</g>
<g>
</g>
<g>
</g>
<g>
</g>
<g>
</g>
<g>
</g>
<g>
</g>
<g>
</g>
<g>
</g>
<g>
</g>
<g>
</g>
<g>
</g>
<g>
</g>
</svg>
