<svg height="480pt" viewBox="-8 0 480 480.01655" width="480pt" xmlns="http://www.w3.org/2000/svg"><path d="m413.046875 321.757812c-2.957031-2.320312-7.117187-2.320312-10.078125 0-3.601562 2.878907-34.960938 29.039063-34.960938 54.238282-.761718 10.824218 3.207032 21.449218 10.882813 29.121094 7.671875 7.671874 18.292969 11.640624 29.117187 10.878906 10.824219.761718 21.449219-3.207032 29.121094-10.878906 7.671875-7.671876 11.640625-18.296876 10.878906-29.121094 0-25.199219-31.359374-51.359375-34.960937-54.238282zm0 0"/><path d="m24.046875 380.679688 75.28125 75.277343 81.359375-81.296875-75.34375-75.34375zm0 0"/><path d="m.0078125 426.71875c-.0429687 20.796875 12.0390625 39.707031 30.9257815 48.414062 18.886718 8.703126 41.113281 5.605469 56.898437-7.933593l-75.023437-75.023438c-8.289063 9.59375-12.8320315 21.863281-12.8007815 34.542969zm0 0"/><path d="m376.007812 279.996094c0 13.257812 10.746094 24 24 24 13.238282-.039063 23.960938-10.761719 24-24v-92.71875c24.929688-26.578125 38.953126-61.5625 39.28125-98 1.242188-34.519532-14.734374-67.402344-42.640624-87.757813-3.171876-2.296875-7.539063-1.957031-10.320313.796875l-254.320313 254.34375-10.320312-10.34375c-9.890625-9.445312-25.464844-9.445312-35.359375 0-9.703125 9.789063-9.703125 25.574219 0 35.363282l120 120c9.765625 9.761718 25.597656 9.761718 35.359375 0 9.765625-9.765626 9.765625-25.597657 0-35.363282l-10.34375-10.320312 48.664062-48.6875v.6875c0 15.464844 12.535157 28 28 28 15.464844 0 28-12.535156 28-28v-28c-.019531-2.15625.882813-4.222656 2.480469-5.679688 1.5-1.472656 3.527344-2.289062 5.632813-2.257812 2.105468.03125 4.109375.902344 5.566406 2.417968 1.515625 1.433594 2.355469 3.4375 2.320312 5.519532zm-21.039062-180.636719c-1.410156 5.621094-4.34375 10.742187-8.480469 14.796875l-26.078125 26.082031c-10.523437 10.523438-16.425781 24.800781-16.402344 39.679688v104.800781l-60 60-76.664062-76.722656 193.9375-193.957032zm0 0"/></svg>