<svg xmlns="http://www.w3.org/2000/svg" viewBox="0 0 58 58"><defs><style>.cls-1{fill:#fff;}</style></defs><title>ico-b</title><g id="Livello_2" data-name="Livello 2"><g id="icone"><g id="icona"><path id="ico" class="cls-1" d="M29.91,6.37V0H28.09V6.37A22.66,22.66,0,0,0,6.37,28.09H0v1.82H6.37A22.66,22.66,0,0,0,28.09,51.63V58h1.82V51.63A22.66,22.66,0,0,0,51.63,29.91H58V28.09H51.63A22.66,22.66,0,0,0,29.91,6.37Zm0,43.45V43.5H28.09v6.32A20.86,20.86,0,0,1,8.18,29.91H14.5V28.09H8.18A20.86,20.86,0,0,1,28.09,8.18V14.5h1.82V8.18A20.86,20.86,0,0,1,49.82,28.09H43.5v1.82h6.32A20.86,20.86,0,0,1,29.91,49.82Z"/><path id="k" class="cls-1" d="M40.39,38a5.5,5.5,0,0,0,2.67,1,6.78,6.78,0,0,1-.47,2.9c-1.47,0-3.25,0-5.35.08a40.11,40.11,0,0,0-4.43.27c-1.16-2.4-2.31-4.55-3.44-6.48a41.45,41.45,0,0,0-3.83-5.43v4.33a12.46,12.46,0,0,0,.21,2.69,1.93,1.93,0,0,0,.74,1.22,3.35,3.35,0,0,0,1.6.42,11.65,11.65,0,0,1,.31,3Q26.66,42,22.25,42q-4.56,0-7.31.12a11.89,11.89,0,0,1,.12-1.55,13.23,13.23,0,0,1,.27-1.47,3.31,3.31,0,0,0,1.59-.42,1.91,1.91,0,0,0,.69-1.2,13.34,13.34,0,0,0,.2-2.71V23a13.54,13.54,0,0,0-.18-2.63A1.71,1.71,0,0,0,17,19.2a4.18,4.18,0,0,0-1.67-.48,12.57,12.57,0,0,1-.35-3c1.29.08,3.6.11,6.93.11,2.81,0,5,0,6.53-.11q0,1-.06,1.68a5.27,5.27,0,0,1-.29,1.34,3.64,3.64,0,0,0-1.62.44,1.8,1.8,0,0,0-.7,1.16A12.89,12.89,0,0,0,25.54,23v4.48l5.22-5.18c1.21-1.21,1.82-2.14,1.82-2.78,0-.47-.34-.72-1-.77a10.39,10.39,0,0,1-.35-3c1,.08,2.44.11,4.37.11,3,0,5,0,5.92-.11a12.13,12.13,0,0,1-.12,1.62,5.9,5.9,0,0,1-.31,1.4,6.47,6.47,0,0,0-2.76.79,11.16,11.16,0,0,0-2.69,2.1l-4.14,4.3A85.1,85.1,0,0,1,38,35.15,9.94,9.94,0,0,0,40.39,38Z"/></g></g></g></svg>