<?xml version="1.0" encoding="utf-8"?>
<!-- Generator: Adobe Illustrator 23.0.1, SVG Export Plug-In . SVG Version: 6.00 Build 0)  -->
<svg version="1.1" id="Livello_1" xmlns="http://www.w3.org/2000/svg" xmlns:xlink="http://www.w3.org/1999/xlink" x="0px" y="0px"
	 viewBox="0 0 636 640" style="enable-background:new 0 0 636 640;" xml:space="preserve">
<style type="text/css">
	.st0{fill:#1D1D1B;}
</style>
<path class="st0" d="M318,2C142.37,2,0,144.37,0,320s142.37,318,318,318s318-142.37,318-318S493.63,2,318,2z M516.7,121.3
	c25.82,25.82,46.08,55.87,60.24,89.33c12.16,28.74,19.32,58.99,21.41,90.15H557.6v10.71h-27.45v-9.97h-16.18v9.97h-51.36v-10.04
	h-16.18v10.04h-51.36v-10.11h-17.13v10.11H326.5v-51.44h10.48v-17.13H326.5v-51.36h10.41v-16.18H326.5v-51.36h10.34v-16.18H326.5
	V80.4h11.09V39.68c31.03,2.12,61.15,9.28,89.78,21.39C460.82,75.22,490.88,95.48,516.7,121.3z M119.3,121.3
	c25.82-25.82,55.87-46.08,89.33-60.24c28.97-12.25,59.47-19.43,90.9-21.45V80.4h9.97v27.45h-10.57v16.18h10.57v51.36h-10.64v16.18
	h10.64v51.36h-10.71v17.13h10.71v51.44h-51.44v-10.48h-17.13v10.48h-51.36v-10.41h-16.18v10.41h-51.36v-10.34h-16.18v10.34H78.4
	v-11.09H37.68c2.12-31.03,9.28-61.15,21.39-89.78C73.22,177.18,93.48,147.12,119.3,121.3z M119.3,518.7
	c-25.82-25.82-46.08-55.87-60.24-89.33c-12.25-28.97-19.43-59.47-21.45-90.9H78.4v-9.97h27.45v10.57h16.18V328.5h51.36v10.64h16.18
	V328.5h51.36v10.71h17.13V328.5h51.44v51.44h-11.09v17.13h11.09v51.36h-11.01v16.18h11.01v51.36h-10.94v16.18h10.94v27.45h-10.34
	v40.77c-31.29-2.06-61.66-9.23-90.52-21.43C175.18,564.78,145.12,544.52,119.3,518.7z M516.7,518.7
	c-25.82,25.82-55.87,46.08-89.33,60.24c-28.74,12.16-58.99,19.32-90.15,21.41V559.6H326.5v-27.45h9.97v-16.18h-9.97v-51.36h10.04
	v-16.18H326.5v-51.36h10.11v-17.13H326.5V328.5h51.44v11.09h17.13V328.5h51.36v11.01h16.18V328.5h51.36v10.94h16.18V328.5h27.45
	v10.34h40.77c-2.06,31.29-9.23,61.66-21.43,90.52C562.78,462.82,542.52,492.88,516.7,518.7z"/>
</svg>
