<?xml version="1.0" encoding="utf-8"?>
<!-- Generator: Adobe Illustrator 23.0.1, SVG Export Plug-In . SVG Version: 6.00 Build 0)  -->
<svg version="1.1" id="Livello_1" xmlns="http://www.w3.org/2000/svg" xmlns:xlink="http://www.w3.org/1999/xlink" x="0px" y="0px"
	 viewBox="0 0 543.43 539.19" style="enable-background:new 0 0 543.43 539.19;" xml:space="preserve">
<style type="text/css">
	.st0{fill:#1D1D1B;}
</style>
<path class="st0" d="M515.27,267.59C514.2,134.65,406.66,27.1,273.72,26.03v-36.26h-4v36.26C136.77,27.1,29.22,134.65,28.15,267.59
	H-8.11v4h36.26c1.07,132.94,108.63,240.5,241.57,241.56v36.27h4v-36.27c132.93-1.08,240.48-108.63,241.55-241.56h36.27v-4H515.27z
	 M273.72,193.06v-19.3c51.27,1.06,92.78,42.56,93.83,93.83h-39.75c-0.99-28.27-22.89-51.21-50.72-53.86
	c-2.6,3.27-6.6,5.37-11.09,5.37c-3.6,0-6.88-1.36-9.39-3.57c-1.71,0.48-3.38,1.03-5.02,1.66c1.57,2.28,2.49,5.04,2.49,8.01
	c0,3.18-1.07,6.11-2.84,8.48c6.22,1.49,10.86,7.08,10.86,13.77c0,7.83-6.34,14.18-14.17,14.17c-7.82,0-14.17-6.34-14.17-14.17
	c0-3.18,1.07-6.11,2.84-8.48c-3.26-0.78-6.07-2.69-8.02-5.28c-7.71,9.25-12.5,21.03-12.95,33.9h-39.75
	c0.36-17.6,5.49-34.04,14.14-48.1c-2.26-2.51-3.64-5.82-3.64-9.46c0-7.83,6.34-14.17,14.17-14.17c2.75,0,5.31,0.8,7.48,2.15
	c16.48-14.68,38.04-23.77,61.69-24.26v17.51C271.16,191.66,272.5,192.26,273.72,193.06z M287.72,271.59
	c-0.69,5.58-4.24,10.26-9.13,12.58c-2.04,1.13-4.38,1.78-6.88,1.78c-2.43,0-4.69-0.63-6.68-1.7c-1.53-0.7-2.92-1.63-4.15-2.74
	c-2.21,4.98-7.17,8.47-12.96,8.47c-7.82,0-14.17-6.34-14.17-14.17c0-7.82,6.34-14.17,14.17-14.17c3.2,0,6.14,1.06,8.5,2.85
	c1.94-5.79,7.06-10.13,13.29-10.9v4.17c0.65-0.09,1.32-0.15,2-0.15c0.68,0,1.35,0.06,2,0.16v-4.18c7.3,0.91,13.09,6.7,14,14h-2.46
	c0.39,1.27,0.6,2.61,0.62,4H287.72z M280.17,247.45c-7.83,0-14.17-6.34-14.17-14.17c0-7.83,6.34-14.17,14.17-14.17
	s14.17,6.34,14.17,14.17C294.34,241.11,288,247.45,280.17,247.45z M225.73,156.95c0-7.83,6.34-14.17,14.17-14.17
	c7.83,0,14.17,6.34,14.17,14.17c0,7.83-6.34,14.17-14.17,14.17C232.07,171.12,225.73,164.78,225.73,156.95z M141.9,139.77
	c34.2-34.2,79.53-53.23,127.82-53.75v27.73c-27.62,0.35-53.51,7.88-75.88,20.82c7.54,0.33,13.55,6.52,13.55,14.14
	c0,7.83-6.34,14.17-14.17,14.17c-7.83,0-14.17-6.34-14.17-14.17c0-1.82,0.35-3.55,0.98-5.14c-38.38,27.97-63.5,73.04-64.14,124.02
	H88.15C88.67,219.3,107.7,173.98,141.9,139.77z M163.46,318.94c0,7.83-6.34,14.17-14.17,14.17c-7.83,0-14.17-6.34-14.17-14.17
	s6.34-14.17,14.17-14.17C157.12,304.77,163.46,311.11,163.46,318.94z M269.72,453.16c-48.29-0.51-93.61-19.55-127.82-53.75
	c-34.21-34.2-53.23-79.53-53.75-127.82h27.73c1.06,84.49,69.34,152.77,153.83,153.83V453.16z M266,371.11
	c0-2.06,0.45-4.01,1.24-5.77c-50.12-2.32-90.31-43.31-91.35-93.75h39.75c1.03,29.41,24.68,53.06,54.09,54.09v35.88
	c1.14-1.24,2.49-2.28,4-3.06v-32.82c19.71-0.69,36.82-11.55,46.28-27.48c-1.45,0.84-3.07,1.45-4.83,1.74
	c-7.72,1.25-15-3.99-16.26-11.72s3.99-15,11.72-16.26c7.12-1.16,13.86,3.22,15.85,9.97c0.75-3.34,1.21-6.8,1.33-10.34h39.75
	c-0.93,45.02-33.04,82.51-75.57,91.7c1.49,2.24,2.36,4.93,2.36,7.82c0,7.83-6.34,14.17-14.17,14.17S266,378.94,266,371.11z
	 M401.54,399.41c-34.2,34.21-79.53,53.23-127.82,53.75v-27.73c84.49-1.06,152.77-69.34,153.83-153.83h27.73
	C454.77,319.88,435.74,365.2,401.54,399.41z M383.15,211.03c0-7.83,6.34-14.17,14.17-14.17s14.17,6.34,14.17,14.17
	c0,7.83-6.34,14.17-14.17,14.17S383.15,218.86,383.15,211.03z M427.55,267.59c-1.06-84.49-69.35-152.77-153.83-153.83V86.02
	c48.29,0.51,93.61,19.55,127.82,53.75c34.21,34.21,53.23,79.53,53.75,127.82H427.55z M463.22,179.24c-7.83,0-14.17-6.34-14.17-14.17
	s6.34-14.17,14.17-14.17s14.17,6.34,14.17,14.17S471.05,179.24,463.22,179.24z"/>
</svg>
